<svg xmlns="http://www.w3.org/2000/svg" viewBox="0 0 206.9 193.6"><style>.st3{fill:#ef5da2}</style><g id="Layer_3"><path d="M161.9 167.6c-1-.6-3.5-1.2-5.3 1.3-1.7 2.5.5 5.1 2.8 6 1.3.5 2.6.5 3.6-.5.9-.9 1.2-2.4 1-3.6-.1-1.3-.8-2.6-2.1-3.2zm-.3 4.5c-.2.9-1 .8-1.7.5-1-.4-2.3-1.6-1.4-2.7.1-.3.4-.3.5-.4.7-.3 1.8.1 2.4 1 .3.5.4 1.1.2 1.6z" class="st3"/><path d="M167.8 162.6c-3.4-3.1-9.3-1.8-11.4-.9-2.9 1.1-4.2 3.5-5.3 6.3-2.6 7.3 1.9 13.6 9.4 14.7 7.3 1.1 11.5-4.5 11.1-11.4-.3-3.1-1.4-6.5-3.8-8.7zm-5.4 17.3c-5.6 0-10.9-4.3-9.2-10.3.7-2.6 2.1-4.9 4.8-5.8.2-.1 4.2-1.5 8.1.7 1.1.6 1.4 2.2 1.8 3.4 1.4 4.6.6 11.9-5.5 12z" class="st3"/><path d="M205.1 133.5c-.4-.9-.8-1.6-1.3-2.5-3.6-7.4-14.3-8.7-20.8-4.7-.9.5-1.6 1.1-2.4 1.8 11.4-22.4 10.1-52.8.4-80-10.5-29.7-35-37.7-52.3-42.6S97.1-1.1 82.4.7c-9.1 1.2-17.1 3.1-26.2 8.1-.4-2.4-3.2-3.4-5-2-1.1.8-1.9 2.1-1.2 3.4.3.6.9 1.1 1.5 1.4-6.2 3.9-13.1 9.2-21.2 16.4 1-2.5 1.3-5.3.9-8-.8-5.1-6.1-10.5-11.6-11.9-5.9-2.4-14.9.2-16.6 7C.9 23.7 1.8 35 16.6 36.4c1.8.2 3.5.2 5-.2-2.9 3-5.5 6.2-7.7 9.6.6-3.4-1.9-6.6-5.6-7-4.8-.5-8.6 4.7-7.7 8.7 1.2 5.1 5.8 6.2 8.8 5.8-.7 1.4-1.4 2.8-2 4.3-.5-.9-1.6-1.2-2.6-.9-.4.1-.7.4-1 .6-.7.3-1.2.9-1.5 1.6-.5 2 1.3 3.5 3 3.2-8.5 23-6.7 49.5 3.8 69.4 15.2 29.1 48 60.4 89.1 57.6 40.2-2.8 63.3-31.9 78.3-54.3-1.2 5.4.8 11.5 5.6 15.7 6.9 6.1 19.3 6.1 23.5-3.2 1.2-2.6 1.5-5.8 1.2-8.7-.3-1.6-.9-3.4-1.7-5.1zM8.1 43c2 .1 2.8 1.6 2.3 3.5-.4 1.3-1.1 2.1-2 2.6-1 .6-2.6-.2-3.1-1.2-1.8-3.9.5-5 2.8-4.9zm8.1-11.3c-6-1.7-8.2-6.1-7.7-13.8.3-4.9 4.7-6 5.3-6.2 4.8-1.2 12.3 4.5 13.2 8.8 1.5 6.4-3.7 13.1-10.8 11.2zm185.5 110.2c-2.7 7-12.3 10.1-17.6 4.6-3.2-3.2-5.3-7.9-4.2-11.5.7-2.5 3.6-4.4 6.6-5.9 5.6-2.8 10.6-.3 14.3 3.8 2.1 2.4 2 6 .9 9z" class="st3"/><path d="M187.2 132.1c-1.1.3-2.2.6-3 1.1-1.6 1.3-2.2 3.8-2 5.8.3 2.3 2 3.6 4 4.5 2.1.9 5.3 1.1 7.3-.2 1.9-1.3 2.7-4.2 2.3-6.3-.5-2.3-2.3-4.1-4.5-4.7-1.1-.5-2.6-.4-4.1-.2zm2.3 8.8c-1 0-2.3-.2-3.3-.7-1.4-.7-1.6-1.9-1.3-3.4.2-1.1 1-2 2.1-1.8 1.4.2 2.8.5 3.9 1.3.8.5 1.1 1.2 1.1 2.1.4 1.7-1 2.5-2.5 2.5zm-17.1 1.6c-.6.6-.7 1.6-.4 2.4.1.1.1.2.3.4.1.4.4.7.8 1 1.6 1 3.4-.9 3.1-2.4-.3-1.9-2.5-2.8-3.8-1.4zm.2 7c-2.5-1.5-8.3.6-6.6 4.1-.1.6-.2 1.4-.1 2 .3 1.6 1.1 2.9 2.8 3.4 1.4.4 2.9 0 4-.9 2.2-2 2.6-6.9-.1-8.6zm-1.5 6.4c-.9 1.3-2.7 1-3.3-.4-.1-.5-.3-1-.1-1.6.9-.6 2.1-1.8 3.1-1.5 1 .4.8 2.6.3 3.5zm-30.3 18.6c-1 .6-1.7 2.3-1.6 3.4.3 2.5 2.8 3.7 4.9 2.7s3-3.3 1.6-5.4c-1.1-1.7-3.2-1.6-4.9-.7zm3 4.6c-1.5 1.1-2.9.3-3.3-1-.3-.6.2-2 .5-2.4.7-.9 2.9-.9 3.4-.1s.8 2.4-.6 3.5zm-6.3 4.1c-.3-.6-.8-1.1-1.3-1.4-4.4-2.7-7.7 4.9-4.2 7.7.5.6 1.3 1.1 2.1 1.4 2.5.6 3.9-1.5 4.1-3.9.4-1.3.3-2.8-.7-3.8zm-12.9 6c-.1-.4-.3-.7-.5-1-.3-.5-.9-.7-1.5-.6-1.4.3-2.7 1.3-2.9 2.8 0 1 .5 2 1.4 2.5.3.2.5.5.9.6 1 .4 1.9-.1 2.4-.9 1-1 1-2.5.2-3.4zm67.4-82.4c-.7 1-1.1 2.5-1.1 3.9v1.1c.7 5.8 8.4 4.9 9.8.1 1.5-4.9-5.3-9.8-8.7-5.1zm3.9-16.7c-.3 0-.6 0-.9.1-1.8.3-3 1.6-2.9 3.2v.1c-.4 1.3.4 2.4 1.6 3 3.1 1.6 7.1-1.7 5.9-4.6-.4-.7-1.1-1.2-2-1.6-.4-.3-1-.3-1.7-.2zm-1.6-5.9c.6 0 1.1-.4 1.4-.9.6-.6.9-1.8.4-2.5-.3-.4-.5-.6-.9-.7l-.2-.1c-1-.7-2.3-.4-2.8.6v.1c-.2.3-.6.5-.7.9-.4.8-.1 1.6.5 2.1.6.3 1.5.5 2.3.5zM41.7 16.4c2.9-1.8 2.8-6.5.3-8.5-1.8-1.5-5.4-1.1-6.4.9-1.6 1-2.1 4-1.6 5.6 1.1 3.2 5.4 3.6 7.7 2zm-2.3-6c1.4.4 1.6 2.5.8 3.5-.2.3-.5.4-.9.5-.3 0-.4 0-.6.1-.4 0-.6 0-1-.1-.1-.1-.4-.1-.5-.2-.4-.2-.6-.7-.8-1.2 0-.4-.1-.8 0-1 .2-.4.4-.6.7-.9.8-.5 1.6-.9 2.3-.7zM13.1 19c-1.1.9-1.7 2.3-1.6 3.5.4 2.9 3.9 5.1 6.7 4.7 3.1-.4 4.4-3.9 3.1-6.5-1.2-2.4-5.4-4.1-8.2-1.7zm5 5.4c-1 .5-2.9-.6-3.5-1.4-.6-.6-.8-1.5-.1-2.3.2-.4.6-.5.9-.6.9.2 1.8.6 2.4 1.1.7.7 1.6 2.4.3 3.2z" class="st3"/></g><g id="Layer_5"><circle cx="181.3" cy="84.1" r="2.6"/><circle cx="181.3" cy="75.5" r="2.4"/><circle cx="178.7" cy="67.1" r="2.4"/><circle cx="176.1" cy="57.5" r="2.4"/><circle cx="172.9" cy="48.1" r="2.4"/><circle cx="168.3" cy="40.7" r="2.4"/><circle cx="156.3" cy="26.6" r="2.4"/><circle cx="148.5" cy="22.5" r="2.4"/><ellipse cx="140.9" cy="18.4" transform="rotate(-45 140.878 18.364)" rx="2.4" ry="2.4"/><ellipse cx="123.6" cy="11.4" transform="rotate(-45 123.618 11.353)" rx="2.4" ry="2.4"/><ellipse cx="96" cy="8.2" transform="rotate(-45 95.993 8.228)" rx="2.4" ry="2.4"/><ellipse cx="75.7" cy="11.2" transform="rotate(-45 75.742 11.186)" rx="2.4" ry="2.4"/><ellipse cx="68.2" cy="14" transform="rotate(-45 68.242 13.977)" rx="2.4" ry="2.4"/><ellipse cx="59.7" cy="17.4" transform="rotate(-45 59.66 17.394)" rx="2.4" ry="2.4"/><ellipse cx="51.8" cy="21.6" transform="rotate(-45 51.826 21.56)" rx="2.4" ry="2.4"/><ellipse cx="45.1" cy="26.1" transform="rotate(-45 45.075 26.06)" rx="2.4" ry="2.4"/><ellipse cx="37.7" cy="31" transform="rotate(-45 37.72 31.04)" rx="2.4" ry="2.4"/><ellipse cx="32" cy="38.9" transform="rotate(-45 32.013 38.915)" rx="2.4" ry="2.4"/><ellipse cx="27" cy="45.1" transform="rotate(-45 27.033 45.06)" rx="2.4" ry="2.4"/><ellipse cx="21.7" cy="51.7" transform="rotate(-45 21.68 51.748)" rx="2.4" ry="2.4"/><ellipse cx="18.2" cy="59.2" transform="rotate(-45 18.22 59.206)" rx="2.4" ry="2.4"/><ellipse cx="12.8" cy="66.6" transform="rotate(-45 12.846 66.58)" rx="2.4" ry="2.4"/><ellipse cx="11.2" cy="76" transform="rotate(-45 11.22 75.998)" rx="2.4" ry="2.4"/><ellipse cx="9.6" cy="84" transform="rotate(-45 9.637 83.956)" rx="2.4" ry="2.4"/><ellipse cx="8.9" cy="94" transform="rotate(-45 8.887 93.956)" rx="2.4" ry="2.4"/><ellipse cx="9.4" cy="104.7" transform="rotate(-45 9.428 104.748)" rx="2.4" ry="2.4"/><ellipse cx="10.3" cy="114.5" transform="rotate(-45 10.262 114.456)" rx="2.4" ry="2.4"/><ellipse cx="14.9" cy="123.9" transform="rotate(-45 14.866 123.936)" rx="2.4" ry="2.4"/><ellipse cx="18.5" cy="132.2" transform="rotate(-45 18.532 132.227)" rx="2.4" ry="2.4"/><ellipse cx="22.4" cy="139.6" transform="rotate(-45 22.407 139.644)" rx="2.4" ry="2.4"/><ellipse cx="28.9" cy="146.4" transform="rotate(-45 28.866 146.353)" rx="2.4" ry="2.4"/><ellipse cx="34.7" cy="152.5" transform="rotate(-45 34.657 152.478)" rx="2.4" ry="2.4"/><ellipse cx="42.3" cy="159" transform="rotate(-45 42.303 159.04)" rx="2.4" ry="2.4"/><ellipse cx="49.4" cy="164.1" transform="rotate(-45 49.407 164.144)" rx="2.4" ry="2.4"/><ellipse cx="56" cy="168.7" transform="rotate(-45 56.01 168.75)" rx="2.4" ry="2.4"/><ellipse cx="63.1" cy="173" transform="rotate(-45 63.115 172.978)" rx="2.4" ry="2.4"/><ellipse cx="70.4" cy="176.1" transform="rotate(-45 70.365 176.103)" rx="2.4" ry="2.4"/><ellipse cx="80.4" cy="178.9" transform="rotate(-45 80.365 178.895)" rx="2.4" ry="2.4"/><ellipse cx="87.3" cy="180.6" transform="rotate(-45 87.324 180.562)" rx="2.4" ry="2.4"/><ellipse cx="95.6" cy="180.6" transform="rotate(-45 95.574 180.603)" rx="2.4" ry="2.4"/><ellipse cx="102.8" cy="180" transform="rotate(-45 102.782 179.98)" rx="2.4" ry="2.4"/><ellipse cx="110.7" cy="178" transform="rotate(-45 110.7 178.02)" rx="2.4" ry="2.4"/><ellipse cx="119.2" cy="176.5" transform="rotate(-45 119.2 176.48)" rx="2.4" ry="2.4"/><ellipse cx="125.2" cy="173.9" transform="rotate(-45 125.24 173.937)" rx="2.4" ry="2.4"/><ellipse cx="132.1" cy="168.5" transform="rotate(-45 132.053 168.54)" rx="2.4" ry="2.4"/><ellipse cx="139.2" cy="165.2" transform="rotate(-45 139.178 165.166)" rx="2.4" ry="2.4"/><ellipse cx="146.9" cy="160.2" transform="rotate(-49.035 146.883 160.164)" rx="2.4" ry="2.4"/><ellipse cx="152" cy="155" transform="rotate(-49.035 152.008 154.997)" rx="2.4" ry="2.4"/><ellipse cx="157.7" cy="148.5" transform="rotate(-49.035 157.737 148.518)" rx="2.4" ry="2.4"/><ellipse cx="163.2" cy="141.4" transform="rotate(-49.035 163.237 141.435)" rx="2.4" ry="2.4"/><ellipse cx="168.3" cy="134.9" transform="rotate(-49.035 168.3 134.914)" rx="2.4" ry="2.4"/><ellipse cx="172.6" cy="128" transform="rotate(-49.035 172.59 128.04)" rx="2.4" ry="2.4"/><ellipse cx="176.2" cy="120.4" transform="rotate(-49.035 176.174 120.415)" rx="2.4" ry="2.4"/><ellipse cx="177.9" cy="111.7" transform="rotate(-49.035 177.925 111.707)" rx="2.4" ry="2.4"/><ellipse cx="180.4" cy="102.2" transform="rotate(-49.035 180.383 102.248)" rx="2.4" ry="2.4"/><ellipse cx="181.3" cy="93.4" transform="rotate(-49.035 181.3 93.374)" rx="2.4" ry="2.4"/><ellipse cx="114" cy="10.4" transform="rotate(-45 113.993 10.353)" rx="2.4" ry="2.4"/><ellipse cx="104.7" cy="8.5" transform="rotate(-45 104.7 8.52)" rx="2" ry="2"/><ellipse cx="87.2" cy="8.6" transform="rotate(-45 87.2 8.644)" rx="2" ry="2"/><path d="M133.7 13.3c-.9-.7-2.5-.7-3.4 0-.9.7-.9 1.9 0 2.7.9.7 2.5.7 3.4 0 1-.8 1-1.9 0-2.7z"/><ellipse cx="163.3" cy="33.8" rx="2.4" ry="2.2"/></g></svg>