<svg xmlns="http://www.w3.org/2000/svg" viewBox="0 0 1362 32.4" preserveAspectRatio="none"><path id="Layer_2" d="M0 32.4V8.3s3.7-.1 6.8.1 4.1.5 7.8 1.1c3.7.6 9.9 1.6 12.9.3S30.1 8 32 8c1.8 0 3.8-1.7 5.2-1.7 1.4 0 4.3.8 5.4 2.3s3.1 4.1 5.1 2.6 6.9-2.3 10.3-4c3.4-1.7 6.8-3 7-2.3s-.9 2.1 3.4 2.4C72.7 7.6 79 8 79 8s-.7 1 4.5 1c5.2-.1 13.8-1 13.8-1s.3 1.4 2.9 2.1c2.7.7 6.3 1.8 8.7.8 2.3-1.1 6.3-1.8 6.3-1.8s5.2-1.8 6.8-.2-2.2 3.1 3.4 3.1 3.3 1.9 11.5-.7 12.6-3.3 18-3.3 5.6.5 7.6 1.3 4.8-1.4 4.8-1.4l1.6-1.1s10.2 1.4 16.2 1.4 8.4.1 10.9.2 6.9-2.3 11.3.1 5.9 4.1 11.1 2.1 7.6-2.4 7.6-2.4 2.6-2 3.4-2.9 10.3-.7 13.6-.4 4.6 1.4 8.6 2.6 7.4 1.8 8.8 1.8 3.6 1.3 3.6 1.3 7.1.8 9.4-.1 6.9-2.1 6.9-2.1 8.3.4 10.9.1 4.3-1.4 5.5-1.4 9.1 1 10.3.2 5.2-1 5.2-1 5.1-.3 8.9 1.4 5.1 2 6.8 2.1 7.1-.1 10.4-.5 11.6-.9 11.6-.9 6.9 1.7 10.4 1.7 11.1 1.1 14.3 0 7-2.6 7-2.6 5.3-1.6 7.6-1.6 6-.6 6-.6l2.9-2 2.3-.5s.6.8.8 2.4 3.5 1.4 3.5 1.4l3.3-1.9 4.3.4s4.5 1.8 6.3 2.7 4 1.8 8.1 1.9 10.8-.7 13.1 0 3.3.4 4.1 1.5 3.3.7 3.3.7l2 1.2 2.3-3.7L455 6s19.2.6 23.2.6 5.9-.5 7.9.6 3.7 1.3 8.1 1.2 16.7-1 17.6-1 1.2 1.5 2.7 2.4 4.1 2.1 6.1.8 2.8-1.1 5.9-1.7 10.7-1.1 13.1-1.9l5.1-1.7s14-.3 16.1-.3.5-.2 3.6 1.1 5.4 2.5 8.3 2.5 3.1.3 6.4 0 5.8-2.1 6.7-1 3.4 1.4 5.3 2.4 7.1 1.4 7.1 1.4 3.8-1.5 13-.8 16.9 1.3 19.6 1.1 2.2 1.4 6.9-.9 6.9-3.5 6.9-3.5 6.1.5 9.3 1.3 6.4 1.1 6.4 1.1 7.6-.4 15.3-.6 11.3-.4 11.8-.3-.7 1.9 2.8 1.9 6.7-.4 9.1-1.1 2.9-1.2 6.4-1.4 7.3-.1 7.3-.1 5.8.5 9.8 1.3 11.4 1.6 18.3 1.3 7.9.1 9.3.1 9.8.9 14.9-1.8 6-4.3 6.6-4.6 2.4-.6 4.3.1 5.1 1.4 5.1 1.4 13.9-.1 16.9-.3 4.4-.6 4.7-.1.1 2.1 2.3 2.8 3.9 1.8 3.9 1.8.8-.8 3.3-.8 1.5-.1 4.2 1.1 7.6.1 8.5.3 1.5 1.3 2.9.8 1.9-1.9 4.4-1.8 8.1.2 9.7-.4 7.4-1.8 7.4-1.8 5.7-.5 6.2.1.1.6.9 1.1 1.1.8 1.9-.9 3.6-2.4 3.6-2.4 8.6.3 13.4.1 4.8-.6 7.8.8 5.6 3.1 8.9 2.8 5.5-.4 7.1-1.2 11-.2 15.7-.1 5.8.1 9.9.1 7.5-1.4 9.3-.6 4.7 2.3 8.6 2.9 6.8.1 8.3-.9 2.3.4 10.6.4 11.8.4 14.2.1 1.9-.7 5.4-1.3 6.7-.7 6.7-.7 11.3.9 15.5.8 6.8-.6 7.7-2.4 2.4-3.9 4.9-3.5 3.3.9 5.2.4 2.9-.8 2.9-.8l.9-1.9 3.9-.3s-.4 1.2 3.2 1.2 4.6-.8 6-.8 2.1.3 4.2 1 2 1.8 3.8 2.3 5.4.3 6.2 1.2 3.4 1.2 3.4 1.2 9.3.4 13.9.3 7.3.5 7.3.5 4.1 2.4 6.2 3.1 4.5 1 4.5 1 5.5-.4 6.3-.4 2.6-1 2.6-1 21.8.1 23.8-.3 4.8-.8 4.8-.8 9.8.2 11.9.3 4.8-.1 4.8-.1.4 1.4 3.2 1.8 11.4-1.2 11.4-1.2l2.2.1-.3-.8 1.8-.3s-1 .9 2.1.9 7.3-.6 7.3-.6 8.3.1 12.1-1.3 8.6-3.6 8.6-3.6l10.1.6 6.4.9s9.1 2.1 9.6 2.1 11.6.6 14.4.4 4.4.9 4.4.9L1239 7l2.1-1.9 1.9-.3 3 2.3 3.3.1 4 2.3 8.4-.1 4.4.8s5.1-.1 5.9.1 3.3.8 3.3.8l5.4.9s5.9.3 10.1.3 8-3.6 15.6-4.1 8.1-.4 15.6-.4 13.2 0 18.9-1.6 11.8-.4 11.8-.4l8.8 1.6 1.4.1v25H0z" fill="#ef5da2"/></svg>